# xmcd
#
# Track frame offsets: 
#        150
#        22445
#        42287
#        61630
#        74265
#        99320
#        122985
#        141995
#        166317
#        190845
#        214950
#
# Disc length: 3059 seconds
#
# Revision: 3
# Processed by: cddbd v1.5.2PL0 Copyright (c) Steve Scherf et al.
# Submitted via: ExactAudioCopyFreeDBPlugin 1.0
#
DISCID=a40bf10b
DTITLE=John Coltrane - Coltrane For Lovers
DYEAR=2001
DGENRE=Jazz
TTITLE0=My one and only love
TTITLE1=Too young to go steady
TTITLE2=In a sentimental mood
TTITLE3=It's easy to remember
TTITLE4=Dedicated to you
TTITLE5=You don't know what love is
TTITLE6=After the rain
TTITLE7=My little brown book
TTITLE8=Soul eyes
TTITLE9=They say it's wonderful
TTITLE10=Nancy (with the laughing face)
EXTD=YEAR: 2001
EXTT0=
EXTT1=
EXTT2=
EXTT3=
EXTT4=
EXTT5=
EXTT6=
EXTT7=
EXTT8=
EXTT9=
EXTT10=
PLAYORDER=
